<svg width="110" height="151" viewBox="0 0 110 151" fill="none" xmlns="http://www.w3.org/2000/svg">
<path d="M44.7506 51.5376L48.2506 53.5376L51.2506 57.0376L53.7506 61.0376L54.7506 66.0376V69.5376L53.7506 73.0376L51.2506 78.0376L49.7506 81.0376L44.7506 87.0376L35.7506 97.0376C29.7506 105.371 21.5506 122.738 32.7506 129.538C46.7506 138.038 61.2506 127.538 64.7506 119.538C67.1506 113.538 68.084 96.7042 68.2506 89.0376L67.2506 62.0376V49.0376V35.0376C67.584 29.8709 70.5589 19.0698 75.2506 13.0376C82.2506 4.03757 85.2506 -0.462437 109.251 0.0375627L106.751 98.5376C105.751 108.038 100.433 129.928 91.2506 136.538C87.2506 139.417 77.9506 147.838 64.7506 149.038C48.2506 150.538 42.2506 150.788 33.2506 147.038C30.536 145.906 25.1223 143.301 20.2506 139.417C17.181 136.97 14.9296 135.472 11.8067 131.538C8.93156 127.915 6.16542 121.922 3.75063 118.038C0.750635 112.371 -2.14937 97.2376 2.25063 82.0376C6.65063 66.8376 16.7506 55.0376 22.2506 51.5376C27.7506 48.0376 35.9506 48.3376 44.7506 51.5376Z" fill="#379DFF"/>
<path d="M37.4889 103.73C38.3099 102.357 45.464 93.5075 49.5561 89.3905L57.5377 93.5792L65.5192 97.7678C65.2654 103.325 63.5216 111.049 57.4286 121.242C51.3357 131.435 42.618 129.502 41.1489 128.986C38.7413 128.401 35.4649 126.567 33.2465 120.767C30.4735 113.517 36.2062 105.876 37.4889 103.73Z" fill="url(#paint0_linear)"/>
<defs>
<linearGradient id="paint0_linear" x1="58.26" y1="94.5088" x2="37.3437" y2="129.889" gradientUnits="userSpaceOnUse">
<stop stop-color="#379DFF" stop-opacity="0"/>
<stop offset="1" stop-color="#C8C9CA" stop-opacity="0.49"/>
</linearGradient>
</defs>
</svg>
